<!DOCTYPE svg PUBLIC "-//W3C//DTD SVG 20010904//EN" "http://www.w3.org/TR/2001/REC-SVG-20010904/DTD/svg10.dtd">
<svg version="1.0" xmlns="http://www.w3.org/2000/svg" width="32px" height="32px" viewBox="0 0 32 32" preserveAspectRatio="xMidYMid meet">
 <g id="layer101" fill="#111111" stroke="none">
  <path d="M15.4191 31.6673 c-0.1531 -0.0053 -0.5096 -0.0211 -0.7921 -0.037 l-0.5149 -0.0317 -0.2244 -0.037 c-0.1241 -0.0185 -0.2904 -0.0528 -0.3696 -0.0766 l-0.1426 -0.0396 -0.1188 0 -0.1188 0 -0.2271 -0.0528 c-0.1241 -0.029 -0.3855 -0.0898 -0.5809 -0.1347 -0.1954 -0.0422 -0.4145 -0.0977 -0.4884 -0.1188 -0.0713 -0.0238 -0.2086 -0.0634 -0.3036 -0.0898 -0.095 -0.0264 -0.2244 -0.066 -0.2904 -0.0871 -0.066 -0.0238 -0.2139 -0.0739 -0.33 -0.1135 -0.2535 -0.0845 -0.5782 -0.2112 -0.8845 -0.3406 -0.1241 -0.0528 -0.2693 -0.1135 -0.3221 -0.132 -0.2007 -0.0739 -1.1908 -0.5756 -1.5551 -0.7868 -2.5003 -1.4548 -4.7446 -3.7809 -6.0251 -6.2495 -0.0871 -0.1663 -0.1716 -0.33 -0.1927 -0.3617 -0.0396 -0.0634 -0.2508 -0.5281 -0.3406 -0.7472 -0.0343 -0.0792 -0.1056 -0.2508 -0.1584 -0.3828 -0.1716 -0.4145 -0.4647 -1.2673 -0.5729 -1.6713 -0.0581 -0.2271 -0.132 -0.5571 -0.2059 -0.9294 -0.029 -0.1373 -0.0739 -0.338 -0.1056 -0.4462 l-0.0528 -0.198 0 -0.1109 0 -0.1135 -0.0502 -0.2587 -0.0502 -0.2587 -0.029 -0.47 -0.029 -0.47 0 -0.969 0 -0.969 0.0264 -0.3934 0.029 -0.3934 0.0634 -0.4119 c0.037 -0.2271 0.0898 -0.5175 0.1188 -0.6495 0.029 -0.1294 0.0713 -0.3274 0.0898 -0.4356 0.3195 -1.7215 1.1802 -3.7677 2.2627 -5.3729 1.2858 -1.9089 3.1366 -3.6832 4.9611 -4.7578 0.3802 -0.2218 0.4224 -0.2455 0.8581 -0.4752 0.8502 -0.4488 1.6607 -0.7868 2.5743 -1.0772 0.5069 -0.1611 0.8079 -0.235 1.4257 -0.3564 0.1373 -0.029 0.338 -0.0739 0.4462 -0.1056 l0.198 -0.0528 0.1188 0 0.1215 0 0.1848 -0.0396 c0.103 -0.0238 0.2746 -0.0528 0.3828 -0.0686 l0.198 -0.0238 0.8053 -0.0264 0.8053 -0.0238 0.7736 0.0238 0.7762 0.0264 0.4515 0.0634 c0.2508 0.0343 0.5201 0.0713 0.5993 0.0818 0.0792 0.0106 0.2165 0.0422 0.3036 0.0686 0.0871 0.0264 0.2587 0.066 0.3828 0.0898 0.9083 0.1663 1.8561 0.4647 2.8647 0.8977 l0.4752 0.2033 0.5017 0.2561 c1.101 0.5677 2.0726 1.2224 3.0416 2.0515 l0.338 0.2878 0.5307 0.5281 0.5307 0.5281 0.2614 0.3036 c0.5465 0.631 0.8713 1.0587 1.2911 1.695 0.404 0.6125 0.5782 0.9188 0.9241 1.6185 l0.2983 0.6073 0.198 0.4884 0.198 0.4884 0.1452 0.4488 c0.1901 0.5888 0.2878 0.932 0.3749 1.3201 0.0396 0.1743 0.0924 0.4119 0.1215 0.5254 l0.0502 0.2112 0 0.1162 0 0.1135 0.0634 0.2825 0.066 0.2825 0.0264 0.3564 c0.0158 0.1954 0.0422 0.5228 0.0607 0.7261 l0.029 0.3696 0.0026 0.6997 0 0.6997 -0.0581 0.5941 c-0.0343 0.3274 -0.0818 0.7261 -0.1109 0.8845 -0.0264 0.1611 -0.0607 0.3855 -0.0766 0.5017 -0.029 0.2191 -0.0422 0.2825 -0.2007 0.9637 -0.1083 0.462 -0.2007 0.7947 -0.2746 0.9901 -0.029 0.0739 -0.0898 0.2508 -0.1347 0.396 -0.1716 0.5413 -0.4911 1.2884 -0.8607 2.0145 -0.3168 0.6231 -0.4858 0.9162 -0.8449 1.4521 -1.2436 1.8772 -2.6878 3.3215 -4.5545 4.5597 -0.5941 0.3934 -0.9954 0.6205 -1.6713 0.9505 -0.3142 0.1531 -0.5782 0.2772 -0.5861 0.2772 -0.0132 0 -0.2007 0.0792 -0.499 0.2112 -0.2297 0.103 -0.5122 0.2112 -0.7261 0.2772 -0.1241 0.0396 -0.2772 0.0898 -0.3432 0.1109 -0.3432 0.1109 -1.0957 0.3142 -1.3465 0.3644 -0.1083 0.0211 -0.2746 0.0554 -0.3696 0.0792 l-0.1716 0.037 -0.1188 0.0026 -0.1215 0 -0.1558 0.0422 c-0.0871 0.0238 -0.2007 0.0528 -0.2508 0.066 -0.0502 0.0132 -0.3406 0.0396 -0.6469 0.0607 l-0.5545 0.0396 -0.6601 0.0106 c-0.3617 0.0053 -0.7842 0.0079 -0.9373 0.0026z"/>
</g>
 <g id="layer102" fill="#f3f3f3" stroke="none">
  <path fill="#000000" d="M15.4191 31.6673 c-0.1531 -0.0053 -0.5096 -0.0211 -0.7921 -0.037 l-0.5149 -0.0317 -0.2244 -0.037 c-0.1241 -0.0185 -0.2904 -0.0528 -0.3696 -0.0766 l-0.1426 -0.0396 -0.1188 0 -0.1188 0 -0.2271 -0.0528 c-0.1241 -0.029 -0.3855 -0.0898 -0.5809 -0.1347 -0.1954 -0.0422 -0.4145 -0.0977 -0.4884 -0.1188 -0.0713 -0.0238 -0.2086 -0.0634 -0.3036 -0.0898 -0.095 -0.0264 -0.2244 -0.066 -0.2904 -0.0871 -0.066 -0.0238 -0.2139 -0.0739 -0.33 -0.1135 -0.2535 -0.0845 -0.5782 -0.2112 -0.8845 -0.3406 -0.1241 -0.0528 -0.2693 -0.1135 -0.3221 -0.132 -0.2007 -0.0739 -1.1908 -0.5756 -1.5551 -0.7868 -2.5003 -1.4548 -4.7446 -3.7809 -6.0251 -6.2495 -0.0871 -0.1663 -0.1716 -0.33 -0.1927 -0.3617 -0.0396 -0.0634 -0.2508 -0.5281 -0.3406 -0.7472 -0.0343 -0.0792 -0.1056 -0.2508 -0.1584 -0.3828 -0.1716 -0.4145 -0.4647 -1.2673 -0.5729 -1.6713 -0.0581 -0.2271 -0.132 -0.5571 -0.2059 -0.9294 -0.029 -0.1373 -0.0739 -0.338 -0.1056 -0.4462 l-0.0528 -0.198 0 -0.1109 0 -0.1135 -0.0502 -0.2587 -0.0502 -0.2587 -0.029 -0.47 -0.029 -0.47 0 -0.969 0 -0.969 0.0264 -0.3934 0.029 -0.3934 0.0634 -0.4119 c0.037 -0.2271 0.0898 -0.5175 0.1188 -0.6495 0.029 -0.1294 0.0713 -0.3274 0.0898 -0.4356 0.3195 -1.7215 1.1802 -3.7677 2.2627 -5.3729 1.2858 -1.9089 3.1366 -3.6832 4.9611 -4.7578 0.3802 -0.2218 0.4224 -0.2455 0.8581 -0.4752 0.8502 -0.4488 1.6607 -0.7868 2.5743 -1.0772 0.5069 -0.1611 0.8079 -0.235 1.4257 -0.3564 0.1373 -0.029 0.338 -0.0739 0.4462 -0.1056 l0.198 -0.0528 0.1188 0 0.1215 0 0.1848 -0.0396 c0.103 -0.0238 0.2746 -0.0528 0.3828 -0.0686 l0.198 -0.0238 0.8053 -0.0264 0.8053 -0.0238 0.7736 0.0238 0.7762 0.0264 0.4515 0.0634 c0.2508 0.0343 0.5201 0.0713 0.5993 0.0818 0.0792 0.0106 0.2165 0.0422 0.3036 0.0686 0.0871 0.0264 0.2587 0.066 0.3828 0.0898 0.9083 0.1663 1.8561 0.4647 2.8647 0.8977 l0.4752 0.2033 0.5017 0.2561 c1.101 0.5677 2.0726 1.2224 3.0416 2.0515 l0.338 0.2878 0.5307 0.5281 0.5307 0.5281 0.2614 0.3036 c0.5465 0.631 0.8713 1.0587 1.2911 1.695 0.404 0.6125 0.5782 0.9188 0.9241 1.6185 l0.2983 0.6073 0.198 0.4884 0.198 0.4884 0.1452 0.4488 c0.1901 0.5888 0.2878 0.932 0.3749 1.3201 0.0396 0.1743 0.0924 0.4119 0.1215 0.5254 l0.0502 0.2112 0 0.1162 0 0.1135 0.0634 0.2825 0.066 0.2825 0.0264 0.3564 c0.0158 0.1954 0.0422 0.5228 0.0607 0.7261 l0.029 0.3696 0.0026 0.6997 0 0.6997 -0.0581 0.5941 c-0.0343 0.3274 -0.0818 0.7261 -0.1109 0.8845 -0.0264 0.1611 -0.0607 0.3855 -0.0766 0.5017 -0.029 0.2191 -0.0422 0.2825 -0.2007 0.9637 -0.1083 0.462 -0.2007 0.7947 -0.2746 0.9901 -0.029 0.0739 -0.0898 0.2508 -0.1347 0.396 -0.1716 0.5413 -0.4911 1.2884 -0.8607 2.0145 -0.3168 0.6231 -0.4858 0.9162 -0.8449 1.4521 -1.2436 1.8772 -2.6878 3.3215 -4.5545 4.5597 -0.5941 0.3934 -0.9954 0.6205 -1.6713 0.9505 -0.3142 0.1531 -0.5782 0.2772 -0.5861 0.2772 -0.0132 0 -0.2007 0.0792 -0.499 0.2112 -0.2297 0.103 -0.5122 0.2112 -0.7261 0.2772 -0.1241 0.0396 -0.2772 0.0898 -0.3432 0.1109 -0.3432 0.1109 -1.0957 0.3142 -1.3465 0.3644 -0.1083 0.0211 -0.2746 0.0554 -0.3696 0.0792 l-0.1716 0.037 -0.1188 0.0026 -0.1215 0 -0.1558 0.0422 c-0.0871 0.0238 -0.2007 0.0528 -0.2508 0.066 -0.0502 0.0132 -0.3406 0.0396 -0.6469 0.0607 l-0.5545 0.0396 -0.6601 0.0106 c-0.3617 0.0053 -0.7842 0.0079 -0.9373 0.0026z m1.2541 -0.0898 c0.2772 -0.0132 0.6759 -0.037 0.8871 -0.0502 l0.3855 -0.0238 0.103 -0.029 c0.0554 -0.0132 0.2218 -0.0396 0.367 -0.0554 0.1452 -0.0132 0.3723 -0.0502 0.5017 -0.0766 0.132 -0.029 0.2983 -0.0634 0.3696 -0.0766 0.1875 -0.037 0.5782 -0.1347 0.7789 -0.198 0.095 -0.029 0.2376 -0.0686 0.3168 -0.0871 0.2587 -0.0581 0.5677 -0.1637 1.1749 -0.3934 0.103 -0.0396 0.2455 -0.0924 0.3168 -0.1188 0.2746 -0.0977 1.5129 -0.6891 1.6238 -0.7762 0.0211 -0.0185 0.0818 -0.0502 0.132 -0.0766 0.0502 -0.0238 0.1109 -0.0554 0.132 -0.0686 0.0211 -0.0158 0.1347 -0.0818 0.2508 -0.1505 0.6521 -0.3828 1.3782 -0.8977 2.0145 -1.431 0.1083 -0.0924 0.2139 -0.1822 0.2323 -0.198 0.0158 -0.0185 0.1927 -0.1795 0.3908 -0.3617 l0.3617 -0.33 0.3908 -0.4224 c0.8871 -0.9558 1.5261 -1.8191 2.1333 -2.8726 0.3195 -0.5597 0.8053 -1.5498 0.932 -1.9063 0.0264 -0.0713 0.0766 -0.2086 0.1109 -0.3036 0.264 -0.697 0.3406 -0.9241 0.404 -1.196 0.0185 -0.0845 0.0528 -0.2086 0.0766 -0.2772 0.103 -0.3089 0.3591 -1.5076 0.3617 -1.6818 0 -0.0422 0.0158 -0.1743 0.037 -0.2904 l0.0396 -0.2112 0.0449 -0.5545 0.0422 -0.5545 0.0026 -0.7393 0.0026 -0.7393 -0.0343 -0.5149 -0.0343 -0.5149 -0.0528 -0.3696 c-0.0713 -0.5175 -0.095 -0.6548 -0.1426 -0.9109 -0.0581 -0.2931 -0.2191 -0.969 -0.2535 -1.0693 -0.0158 -0.0422 -0.0502 -0.169 -0.0766 -0.2772 -0.0792 -0.3274 -0.1716 -0.5993 -0.4092 -1.2277 -0.0396 -0.1003 -0.0924 -0.2429 -0.1188 -0.3168 -0.1188 -0.3274 -0.6865 -1.5076 -0.7974 -1.6475 -0.0264 -0.0343 -0.0475 -0.0739 -0.0475 -0.0898 0 -0.037 -0.2218 -0.4092 -0.6046 -1.0086 -0.1267 -0.198 -0.4356 -0.6257 -0.6495 -0.895 -0.1162 -0.1452 -0.2429 -0.3089 -0.2799 -0.3591 -0.3142 -0.4172 -1.2436 -1.3756 -1.8191 -1.8772 -0.2719 -0.2376 -0.8475 -0.697 -1.0693 -0.8554 -0.1003 -0.0713 -0.2587 -0.1848 -0.3485 -0.2508 -0.0898 -0.066 -0.2218 -0.1531 -0.2904 -0.1954 -0.0686 -0.0422 -0.2086 -0.132 -0.3116 -0.198 -0.2059 -0.1347 -0.301 -0.1901 -0.433 -0.2535 -0.0475 -0.0238 -0.132 -0.0713 -0.1848 -0.1056 -0.1003 -0.066 -0.4436 -0.2561 -0.5571 -0.3063 -0.1347 -0.0607 -0.7287 -0.3459 -0.771 -0.3696 -0.0475 -0.0238 -0.2112 -0.0898 -0.4832 -0.1954 -0.0871 -0.0343 -0.2535 -0.0977 -0.3696 -0.1452 -0.1162 -0.0475 -0.2825 -0.1056 -0.3696 -0.132 -0.0871 -0.029 -0.2112 -0.0686 -0.2772 -0.0898 -0.066 -0.0238 -0.2244 -0.0713 -0.3564 -0.1083 -0.1294 -0.037 -0.3327 -0.0977 -0.4488 -0.132 -0.1162 -0.037 -0.2931 -0.0818 -0.396 -0.103 -0.1003 -0.0185 -0.2614 -0.0554 -0.3564 -0.0766 -0.095 -0.0211 -0.2482 -0.0528 -0.3432 -0.0686 -0.095 -0.0158 -0.2297 -0.0396 -0.3036 -0.0528 -0.0713 -0.0158 -0.2455 -0.0396 -0.3828 -0.0554 -0.1373 -0.0132 -0.3749 -0.0449 -0.5281 -0.066 l-0.2772 -0.0396 -0.6997 -0.029 -0.6997 -0.0264 -0.7393 0.029 -0.7393 0.0264 -0.2508 0.0422 c-0.1373 0.0211 -0.3987 0.0554 -0.5809 0.0766 l-0.33 0.037 -0.1584 0.0396 c-0.0845 0.0238 -0.1927 0.0422 -0.2376 0.0422 -0.0449 0 -0.1637 0.0238 -0.264 0.0502 -0.103 0.029 -0.2561 0.0634 -0.3432 0.0818 -0.0871 0.0158 -0.2297 0.0528 -0.3168 0.0818 -0.0871 0.0264 -0.2482 0.0739 -0.3564 0.103 -0.4884 0.132 -0.6495 0.1848 -1.0825 0.3485 -0.705 0.2693 -0.8528 0.3274 -0.9188 0.3617 -0.0238 0.0158 -0.264 0.132 -0.5333 0.264 -0.2693 0.1294 -0.565 0.2799 -0.6601 0.3353 -0.095 0.0528 -0.2191 0.1241 -0.2772 0.1558 -0.771 0.4251 -1.6238 1.0376 -2.5083 1.7954 l-0.3432 0.2957 -0.4066 0.4066 -0.4066 0.4066 -0.2957 0.3432 c-0.5677 0.6627 -1.2436 1.5498 -1.3518 1.7822 -0.0106 0.0211 -0.0792 0.1294 -0.1531 0.2376 -0.0739 0.1083 -0.1479 0.2271 -0.1663 0.264 -0.0185 0.037 -0.066 0.1215 -0.1056 0.1901 -0.2244 0.3908 -0.2983 0.5281 -0.3221 0.5809 -0.0158 0.0343 -0.037 0.0792 -0.0502 0.1003 -0.0132 0.0211 -0.1056 0.2059 -0.2007 0.4092 -0.0977 0.2033 -0.1875 0.3908 -0.2007 0.4145 -0.0238 0.0475 -0.0924 0.2139 -0.1954 0.4832 -0.0343 0.0871 -0.0977 0.2535 -0.1452 0.3696 -0.0475 0.1162 -0.1056 0.2825 -0.132 0.3696 -0.029 0.0871 -0.0686 0.2112 -0.0898 0.2772 -0.0238 0.066 -0.0713 0.2271 -0.1083 0.3564 -0.037 0.132 -0.095 0.3327 -0.132 0.4488 -0.0343 0.1162 -0.0766 0.2825 -0.0924 0.3696 -0.0185 0.0871 -0.0528 0.2403 -0.0818 0.3432 l-0.0502 0.1848 0 0.0871 c0 0.0502 -0.0238 0.1875 -0.0502 0.3063 l-0.0502 0.2139 -0.0185 0.198 c-0.0079 0.1083 -0.0317 0.2931 -0.0528 0.4092 -0.0211 0.1162 -0.0502 0.3591 -0.0686 0.5413 l-0.0317 0.33 0.0026 1.0693 0 1.0693 0.0422 0.33 c0.0211 0.1822 0.0581 0.4858 0.0818 0.6733 0.0238 0.1901 0.066 0.4515 0.095 0.5809 0.0264 0.132 0.0502 0.2799 0.0502 0.3327 l0 0.0977 0.0502 0.1663 c0.029 0.0924 0.0634 0.2403 0.0792 0.3274 0.0158 0.0845 0.0607 0.2587 0.0977 0.3828 0.037 0.1241 0.095 0.3248 0.132 0.4488 0.0343 0.1241 0.0818 0.2772 0.1056 0.3432 0.0238 0.066 0.0581 0.1795 0.0766 0.2508 0.0343 0.1294 0.1135 0.3327 0.2403 0.6231 0.0343 0.0818 0.0634 0.1611 0.0634 0.1769 0 0.0211 0.037 0.1162 0.169 0.4145 0.0185 0.0449 0.1056 0.2271 0.1927 0.4092 0.0871 0.1822 0.1716 0.3591 0.1875 0.396 0.0554 0.1188 0.2455 0.4594 0.3089 0.5571 0.0343 0.0528 0.0818 0.1373 0.1056 0.1848 0.0634 0.132 0.1188 0.2271 0.2535 0.433 0.066 0.103 0.1558 0.2429 0.198 0.3116 0.0422 0.0686 0.1294 0.2007 0.1954 0.2904 0.066 0.0898 0.1795 0.2482 0.2508 0.3485 0.1505 0.2112 0.7366 0.9452 0.8977 1.1221 0.0581 0.0634 0.2139 0.2297 0.3459 0.3696 0.132 0.1373 0.2746 0.2878 0.3168 0.3327 0.0766 0.0845 0.5096 0.4911 0.7102 0.6706 0.6046 0.5386 1.3465 1.0957 2.0251 1.5182 0.2931 0.1848 0.6284 0.3828 0.7155 0.4224 0.0475 0.0238 0.1373 0.0713 0.2033 0.1083 0.3564 0.2033 1.2304 0.6205 1.5182 0.7234 0.0739 0.0264 0.2165 0.0792 0.3168 0.1188 0.6099 0.2323 0.9162 0.3353 1.1776 0.396 0.0818 0.0185 0.2218 0.0581 0.3116 0.0898 0.0898 0.029 0.1848 0.0554 0.2139 0.0554 0.029 0 0.1795 0.0343 0.3353 0.0766 0.3089 0.0818 0.9822 0.2139 1.0931 0.2139 0.0396 0 0.2059 0.0238 0.3696 0.0502 l0.301 0.0502 0.5809 0.0317 c0.3195 0.0158 0.6469 0.0317 0.7261 0.037 0.3274 0.0158 0.6469 0.0132 1.1221 -0.0106z"/>
  <path d="M11.4984 28.0132 c-0.0924 -0.0185 -0.3089 -0.1162 -0.5809 -0.2561 -0.1162 -0.0607 -0.4805 -0.3089 -0.6521 -0.4436 -0.0818 -0.066 -0.2614 -0.2403 -0.4013 -0.3881 l-0.2535 -0.2667 -0.0554 -0.1162 -0.0581 -0.1188 0.037 -0.0343 0.037 -0.0343 0.1452 -0.0264 c0.2693 -0.0528 0.5703 -0.1294 0.6284 -0.1611 0.0317 -0.0158 0.1241 -0.0528 0.2086 -0.0792 0.0845 -0.0264 0.2535 -0.095 0.3776 -0.1479 0.1241 -0.0528 0.2667 -0.1083 0.3168 -0.1241 l0.0924 -0.0264 0.0607 -0.0554 0.0581 -0.0528 0 -0.0739 0 -0.0739 -0.1003 -0.1927 c-0.1452 -0.2772 -0.3934 -0.8211 -0.4541 -0.998 -0.0185 -0.0502 -0.066 -0.1875 -0.1083 -0.3036 -0.0422 -0.1135 -0.0766 -0.2323 -0.0766 -0.264 0 -0.0607 0.0528 -0.3063 0.1452 -0.6601 0.0343 -0.1294 0.0686 -0.2851 0.0792 -0.3432 0.0106 -0.0554 0.0317 -0.1347 0.0528 -0.1716 0.0185 -0.037 0.0396 -0.1135 0.0502 -0.1716 0.0106 -0.0581 0.0475 -0.1822 0.0818 -0.2772 0.0739 -0.2033 0.1531 -0.4488 0.2218 -0.6865 0.1188 -0.404 0.3089 -0.9822 0.4779 -1.4653 0.0264 -0.0713 0.0898 -0.2614 0.1426 -0.4224 0.0528 -0.1584 0.1373 -0.4092 0.1875 -0.5545 0.0528 -0.1452 0.1135 -0.33 0.1347 -0.4092 0.0238 -0.0792 0.0581 -0.1769 0.0792 -0.2165 0.0211 -0.0396 0.037 -0.0898 0.037 -0.1135 0 -0.0396 0.0924 -0.2983 0.2139 -0.6073 0.029 -0.0713 0.0713 -0.1954 0.0924 -0.2746 0.0211 -0.0792 0.0502 -0.1584 0.0607 -0.1716 0.0132 -0.0158 0.0422 -0.095 0.0634 -0.1743 0.0211 -0.0792 0.0766 -0.2455 0.1215 -0.3696 0.0475 -0.1241 0.1083 -0.2957 0.1373 -0.3828 0.029 -0.0871 0.0713 -0.1927 0.0898 -0.2376 0.0211 -0.0422 0.0449 -0.1135 0.0554 -0.1584 0.0106 -0.0422 0.0396 -0.132 0.0634 -0.198 0.0264 -0.066 0.066 -0.1716 0.0871 -0.2376 0.0211 -0.066 0.0845 -0.2323 0.1373 -0.3696 0.0528 -0.1373 0.1109 -0.3089 0.132 -0.3776 0.0185 -0.0686 0.0475 -0.1426 0.0634 -0.1584 0.0132 -0.0185 0.0396 -0.0924 0.0581 -0.1637 0.0158 -0.0739 0.0422 -0.1452 0.0528 -0.1584 0.0106 -0.0158 0.0581 -0.1294 0.103 -0.2508 0.0449 -0.1241 0.1135 -0.301 0.1505 -0.396 0.0343 -0.095 0.0818 -0.2271 0.1003 -0.2957 0.0185 -0.066 0.0502 -0.1479 0.066 -0.1795 0.0158 -0.0317 0.0528 -0.1188 0.0792 -0.1927 0.1056 -0.2983 0.1875 -0.5096 0.2218 -0.5729 0.0211 -0.037 0.0449 -0.1083 0.0554 -0.1584 0.0106 -0.0502 0.0343 -0.1162 0.0528 -0.1479 0.0185 -0.029 0.0528 -0.1135 0.0739 -0.1848 0.0238 -0.0713 0.0845 -0.2297 0.1373 -0.3538 0.095 -0.2165 0.1743 -0.4224 0.2772 -0.6997 0.0581 -0.1558 0.1426 -0.3644 0.2772 -0.6733 0.0528 -0.1241 0.1135 -0.2719 0.132 -0.33 0.0211 -0.0581 0.0792 -0.2059 0.132 -0.33 0.0554 -0.1241 0.1188 -0.2772 0.1452 -0.3432 0.029 -0.066 0.0739 -0.1663 0.103 -0.2244 0.0317 -0.0554 0.0554 -0.1215 0.0554 -0.1452 0 -0.0211 0.0238 -0.0739 0.0528 -0.1188 0.029 -0.0422 0.0528 -0.095 0.0528 -0.1135 0 -0.0185 0.066 -0.1716 0.1452 -0.338 0.0792 -0.169 0.1452 -0.3142 0.1452 -0.3221 0 -0.0106 0.0317 -0.0845 0.0686 -0.1637 0.037 -0.0792 0.0898 -0.1927 0.1162 -0.2508 0.0449 -0.1003 0.2112 -0.4515 0.4462 -0.9373 0.0581 -0.1241 0.1716 -0.3432 0.2535 -0.4884 0.0792 -0.1452 0.1611 -0.301 0.1822 -0.3459 0.0686 -0.1426 0.2429 -0.3881 0.3749 -0.5307 l0.1294 -0.1373 0.0792 -0.0185 0.0792 -0.0185 0.2033 0.0396 0.2033 0.0422 0.3908 0.1954 0.3908 0.1954 0.2376 0.1531 c0.132 0.0871 0.2851 0.1875 0.3432 0.2244 0.0581 0.037 0.2403 0.1795 0.404 0.3168 l0.301 0.2482 0.1848 0.2139 c0.103 0.1188 0.198 0.2403 0.2139 0.2719 l0.0264 0.0607 -0.029 0.066 -0.0317 0.066 -0.1056 0.0422 -0.1083 0.0422 -0.1848 0.2033 -0.1848 0.2007 -0.2007 0.3036 c-0.1109 0.1663 -0.235 0.3538 -0.2772 0.4172 -0.0396 0.0634 -0.0924 0.1531 -0.1135 0.198 -0.0211 0.0475 -0.0502 0.103 -0.0634 0.1241 -0.1716 0.2667 -0.6785 1.2436 -0.9267 1.7822 -0.0475 0.103 -0.1426 0.3036 -0.2112 0.4488 -0.0713 0.1452 -0.1663 0.3538 -0.2112 0.462 -0.1267 0.3063 -0.1927 0.4488 -0.2693 0.602 -0.0422 0.0792 -0.0739 0.1558 -0.0739 0.1743 0 0.0158 -0.029 0.0845 -0.066 0.1531 -0.037 0.0686 -0.066 0.1373 -0.066 0.1558 0 0.0158 -0.0238 0.0792 -0.0502 0.1399 -0.029 0.0607 -0.095 0.2086 -0.1479 0.3327 -0.0528 0.1241 -0.1188 0.2719 -0.1452 0.33 -0.029 0.0581 -0.0581 0.1426 -0.0686 0.1848 -0.0079 0.0449 -0.0343 0.1056 -0.0554 0.1399 -0.0211 0.0343 -0.0528 0.1109 -0.0739 0.1716 -0.0475 0.1479 -0.1875 0.4884 -0.2376 0.5782 -0.0211 0.037 -0.0396 0.0845 -0.0396 0.1003 0 0.0185 -0.029 0.1003 -0.0634 0.1822 -0.0317 0.0818 -0.0766 0.1901 -0.095 0.2403 -0.0449 0.1267 -0.1611 0.4198 -0.264 0.6601 -0.0475 0.1083 -0.1056 0.2587 -0.132 0.33 -0.0634 0.1769 -0.1611 0.4304 -0.264 0.6865 -0.0475 0.1162 -0.1056 0.2719 -0.132 0.3432 -0.0264 0.0739 -0.0686 0.169 -0.0898 0.2112 -0.0238 0.0449 -0.0422 0.0924 -0.0422 0.1109 0 0.0158 -0.0554 0.1637 -0.1215 0.33 -0.0686 0.1637 -0.1452 0.3617 -0.1716 0.4409 -0.0264 0.0792 -0.0607 0.1558 -0.0739 0.1716 -0.0158 0.0185 -0.037 0.0792 -0.0528 0.1347 -0.0238 0.103 -0.0686 0.2244 -0.2165 0.5756 -0.0422 0.0977 -0.0766 0.1927 -0.0766 0.2112 0 0.0158 -0.0317 0.0924 -0.066 0.1637 -0.037 0.0739 -0.066 0.1531 -0.066 0.1795 0 0.0264 -0.0238 0.0924 -0.0528 0.1505 -0.029 0.0581 -0.0528 0.1241 -0.0528 0.1479 0 0.0264 -0.0238 0.095 -0.0502 0.1531 -0.0581 0.1188 -0.1716 0.4119 -0.2323 0.5967 -0.0211 0.066 -0.0554 0.1558 -0.0766 0.198 -0.0211 0.0449 -0.0528 0.1399 -0.0739 0.2112 -0.0211 0.0739 -0.0818 0.2455 -0.1347 0.3828 -0.1822 0.4673 -0.2297 0.5941 -0.2693 0.7393 -0.0211 0.0792 -0.0502 0.1584 -0.0607 0.1716 -0.0132 0.0158 -0.0396 0.0924 -0.0607 0.1716 -0.0238 0.0792 -0.0713 0.2218 -0.1109 0.3168 -0.1267 0.3195 -0.2059 0.5439 -0.3036 0.8581 -0.0264 0.0871 -0.0871 0.2587 -0.1347 0.3828 -0.0449 0.1241 -0.1056 0.2957 -0.1347 0.3828 -0.029 0.0871 -0.0686 0.1954 -0.0898 0.2376 -0.037 0.0845 -0.0871 0.2851 -0.0898 0.3644 l0 0.0449 0.0607 0 0.0607 0 0.0264 -0.0238 c0.0132 -0.0132 0.2561 -0.1426 0.5386 -0.2878 0.2825 -0.1452 0.602 -0.3116 0.7076 -0.3696 0.1056 -0.0607 0.2191 -0.1162 0.2508 -0.1267 0.0317 -0.0106 0.0871 -0.037 0.1241 -0.0634 0.037 -0.0264 0.095 -0.0554 0.132 -0.066 0.037 -0.0106 0.0818 -0.0317 0.103 -0.0502 0.0211 -0.0158 0.0977 -0.0581 0.1716 -0.095 0.0739 -0.037 0.2191 -0.1109 0.3195 -0.1637 0.1716 -0.0898 0.264 -0.1347 0.8185 -0.4119 0.1162 -0.0581 0.2825 -0.1373 0.3696 -0.1769 0.0871 -0.0396 0.1822 -0.0845 0.2112 -0.1003 0.1452 -0.0766 0.5122 -0.2561 0.5254 -0.2561 0.0211 0 0.2455 -0.1003 0.7102 -0.3142 0.0977 -0.0449 0.1927 -0.0818 0.2112 -0.0818 0.0158 0 0.0924 -0.029 0.1637 -0.066 l0.132 -0.0634 0.0528 -0.0026 c0.029 0 0.095 -0.0211 0.1452 -0.0502 0.0502 -0.0264 0.1347 -0.0581 0.1848 -0.066 0.0502 -0.0106 0.1531 -0.0422 0.2244 -0.0686 0.0739 -0.0238 0.2191 -0.0607 0.3274 -0.0792 l0.1954 -0.0317 0.1215 0.0132 0.1215 0.0158 0.1716 0.0871 c0.095 0.0502 0.2086 0.1109 0.2508 0.1373 0.2403 0.1531 0.3036 0.1954 0.4277 0.301 0.0766 0.0634 0.2007 0.1611 0.2772 0.2191 0.0766 0.0554 0.3327 0.2878 0.5677 0.5122 l0.4277 0.4119 0.2191 0.2693 c0.3142 0.3828 0.3591 0.4462 0.3776 0.5228 l0.0158 0.0686 -0.037 0.0158 -0.0396 0.0158 -0.1294 -0.0422 -0.1267 -0.0396 -0.33 0.0158 -0.33 0.0132 -0.0792 0.0264 c-0.0422 0.0158 -0.1927 0.0449 -0.33 0.0686 -0.1373 0.0211 -0.3274 0.0581 -0.4224 0.0818 -0.2403 0.0607 -1.0799 0.3063 -1.2673 0.3696 -0.066 0.0238 -0.1769 0.0581 -0.2508 0.0766 -0.0713 0.0185 -0.2033 0.066 -0.2904 0.103 -0.0871 0.037 -0.1743 0.0686 -0.1927 0.0686 -0.0185 0 -0.0766 0.0211 -0.132 0.0502 -0.0528 0.0264 -0.1558 0.0634 -0.2297 0.0792 -0.0713 0.0185 -0.1452 0.0449 -0.1611 0.0581 -0.0185 0.0132 -0.0898 0.0422 -0.1584 0.0607 -0.0713 0.0211 -0.2244 0.0739 -0.3406 0.1215 -0.1162 0.0475 -0.2878 0.1135 -0.3828 0.1505 -0.0924 0.0343 -0.1822 0.0739 -0.198 0.0845 -0.0132 0.0132 -0.095 0.0422 -0.1769 0.066 l-0.1505 0.0422 -0.0158 0.0264 c-0.0079 0.0158 -0.0343 0.0264 -0.0581 0.0264 -0.0396 0 -0.3432 0.1267 -0.6046 0.2508 -0.0739 0.037 -0.1505 0.066 -0.1716 0.066 -0.0211 0 -0.0818 0.0238 -0.1373 0.0528 -0.0528 0.029 -0.1109 0.0528 -0.1294 0.0528 -0.0158 0 -0.0792 0.0238 -0.1373 0.0502 -0.3696 0.1716 -0.5941 0.2667 -0.6257 0.2667 -0.0211 0 -0.0713 0.0238 -0.1162 0.0528 -0.0422 0.029 -0.0977 0.0528 -0.1188 0.0528 -0.0211 0 -0.0977 0.029 -0.1716 0.066 -0.0713 0.0343 -0.1505 0.066 -0.1716 0.066 -0.0211 0 -0.0792 0.0238 -0.1267 0.0528 -0.0871 0.0528 -0.2086 0.1056 -0.5201 0.2244 -0.1822 0.0686 -0.3881 0.1558 -0.6733 0.2772 -0.1083 0.0475 -0.2561 0.1083 -0.33 0.132 -0.0713 0.0264 -0.1663 0.0686 -0.2112 0.0898 -0.0422 0.0238 -0.095 0.0422 -0.1109 0.0422 -0.0185 0 -0.1083 0.029 -0.198 0.0634 -0.0924 0.0343 -0.264 0.1003 -0.3828 0.1452 l-0.2191 0.0818 -0.1901 0.0132 -0.1927 0.0106 -0.1056 -0.0238z"/>
</g>
</svg>